# xmcd
#
# Track frame offsets:
#	150
#	15145
#	27880
#	42980
#	55742
#	68625
#	81101
#	95463
#	110870
#	123001
#	137256
#	150122
#	163269
#	176951
#	192531
#	204685
#	217491
#	230257
#
# Disc length: 3264 seconds
#
# Revision: 0
# Processed by: cddbd v1.5.2PL0 Copyright (c) Steve Scherf et al.
# Submitted via: EasyCDDAExtractor 16.0.6.1
#
DISCID=f10cbe12
DTITLE=Νικολαΐδης Απόστολος - Τραγούδια 45 στροφές-Νικολαΐδης Απόστολος 2
DYEAR=1997
DGENRE=Λαϊκή
TTITLE0=Νικολαΐδης Απόστολος-Χρυσάφη Άννα - Τό 'ξερα μιά μέρα [1963, Νίκου Δαλ
TTITLE0=έζιου]
TTITLE1=Νικολαΐδης Απόστολος-Γκίκα Βούλα - Μη το παίρνεις για αστείο [1965, Κ.
TTITLE1=Παρασκευά-Γ. Σαμολαδά]
TTITLE2=Νικολαΐδης Απόστολος - Ο μάγκας [1962, Μιχ. Γενίτσαρη]
TTITLE3=Νικολαΐδης Απόστολος-Γκίκα Βούλα - Δρόμο παίρνω [1962, Βασ. Καραπατάκη
TTITLE3=]
TTITLE4=Νικολαΐδης Απόστολος-Αποστολίδου Φρ.-Λαύκας Γ. - Χαμένη μου χαρά [1962
TTITLE4=, Γ. Λαύκα]
TTITLE5=Νικολαΐδης Απόστολος - Συγχώρεσε πατέρα μου [1966, Νίκου Μουρκάκου]
TTITLE6=Νικολαΐδης Απόστολος-Γκίκα Βούλα - Άσε με στον πόνο μου [1964, Γερ. Κλ
TTITLE6=ουβάτου]
TTITLE7=Νικολαΐδης Απόστολος-Γκίκα Βούλα - Εσύ με πλήγωσες βαριά [1962, Γ. Λαύ
TTITLE7=κα]
TTITLE8=Νικολαΐδης Απόστολος - Μείνε στο σπίτι μας [1964, Νίκου Δαλέζιου]
TTITLE9=Νικολαΐδης Απόστολος - Παναγιά μου τι έχω πάθει [1966, Απ. Νικολαΐδη-Ά
TTITLE9=ντου]
TTITLE10=Νικολαΐδης Απόστολος-Γκίκα Βούλα - Τώρα πια τίποτα δεν μάς χωρίζει [1
TTITLE10=962, Απ. Καλδάρα]
TTITLE11=Νικολαΐδης Απόστολος-Κούρτη Ρία - Γιατί να ρωτήσω τον κόσμο [1963, Γ.
TTITLE11=Κόρου]
TTITLE12=Νικολαΐδης Απόστολος - Ας πέθαινα στα ψέματα [1965, Μ. Χιώτη-Ν. Δαλέζ
TTITLE12=ιου]
TTITLE13=Νικολαΐδης Απόστολος-Λύδια Γιώτα - Μην ακούς κανένα [1964, Στρ. Ατταλ
TTITLE13=ίδη-Ν. Δαλέζιου]
TTITLE14=Νικολαΐδης Απόστολος-Χρυσάφη Άννα - Ο νταής [1964, ανέκδ., Γιώργου Μο
TTITLE14=υφλουζέλη]
TTITLE15=Νικολαΐδης Απόστολος-Γκίκα Βούλα - Ένα ψίχουλο στοργής [1961, ανέκδ.,
TTITLE15=Γερ. Κλουβάτου]
TTITLE16=Νικολαΐδης Απόστολος - Τέτοια αγάπη να μού λείπει [1961, ανέκδ., Γ. Κ
TTITLE16=όρου]
TTITLE17=Νικολαΐδης Απόστολος - Δεν έχει χρυσάφι σαν την καρδιά σου [1964, αν.
TTITLE17=Γ. Μουφλουζέλη]
EXTD=
EXTT0=
EXTT1=
EXTT2=
EXTT3=
EXTT4=
EXTT5=
EXTT6=
EXTT7=
EXTT8=
EXTT9=
EXTT10=
EXTT11=
EXTT12=
EXTT13=
EXTT14=
EXTT15=
EXTT16=
EXTT17=
PLAYORDER=
